<svg width="1873" height="1040" viewBox="0 0 1873 1040" fill="none" xmlns="http://www.w3.org/2000/svg">
<path d="M346.279 742.601H492.005V596.877H346.279V742.601ZM523.943 774.539H314.342V564.94H523.943V774.539Z" fill="#039FF7"/>
<path d="M821.586 742.601H967.307V596.877H821.586V742.601ZM999.244 774.539H789.648V564.94H999.244V774.539Z" fill="#039FF7"/>
<path d="M547.177 796.647H427.306V870.864H574.571V846.191H457.03V821.323H574.571V687.075H547.177V796.647Z" fill="white"/>
<path d="M754.457 715.051V689.016H612.631V715.051H725.313L715.211 845.413H678.687V767.505H650.323V845.413H600.781V870.864H767.861V845.413H744.355L754.457 715.051Z" fill="white"/>
<path d="M1083.96 714.079H1153.71L1131.95 869.697H1161.87L1184.21 714.079V688.044H1083.96V714.079Z" fill="white"/>
<path d="M1214.33 870.864H1244.24V687.075H1214.33V870.864Z" fill="white"/>
<path d="M1270.45 806.167H1283.66V870.863H1428.21V844.442H1311.25V806.167H1437.54V780.135H1270.45V806.167Z" fill="white"/>
<path d="M1425.29 732.34H1308.92V687.075H1282.5V758.571H1425.29V732.34Z" fill="white"/>
<path d="M1620.52 788.488V756.044L1597.01 741.86L1623.43 724.568V697.759H1589.04V680.467H1559.51V697.759H1523.96V724.568H1575.25L1523.96 757.016V789.46L1572.33 757.791L1620.52 788.488Z" fill="white"/>
<path d="M1645.58 844.637H1566.31C1561.65 844.637 1557.96 840.946 1557.96 836.283C1557.96 831.621 1561.65 827.927 1566.31 827.927H1645.58C1650.24 827.927 1653.93 831.621 1653.93 836.283C1653.93 840.946 1650.24 844.637 1645.58 844.637ZM1645.58 801.699H1566.31C1547.27 801.699 1531.73 817.242 1531.73 836.283C1531.73 855.322 1547.27 870.865 1566.31 870.865H1645.58C1664.81 870.865 1680.16 855.322 1680.16 836.283C1680.16 817.242 1664.81 801.699 1645.58 801.699Z" fill="white"/>
<path d="M1652.38 789.655H1679.38V687.074H1652.38V728.454H1625.18V753.907H1652.38V789.655Z" fill="white"/>
<path d="M1803.7 845.414V793.151H1774.56V845.414H1705.59V870.864H1872.68V845.414H1803.7Z" fill="white"/>
<path d="M1776.7 721.85H1801.57L1831.88 803.254H1867.04L1819.25 687.657H1759.02L1711.23 803.254H1746.39L1776.7 721.85Z" fill="white"/>
<path d="M1052.51 751.573H1072.33V725.736H1052.51V687.075H1025.11V781.104H1052.51V751.573Z" fill="white"/>
<path d="M1052.51 820.231V803.448H1025.11H910.488V870.864H1052.51V854.084H938.66V845.473H1052.51V828.693H938.66V820.231H1052.51Z" fill="white"/>
<path d="M1019.55 119.312L1013.81 162.06H904.702L897.683 119.312H1019.55Z" fill="#039FF7"/>
<path d="M898.205 -7.62939e-06H857.486C878.825 16.412 893.05 100.292 893.05 100.292H957.068H1021.08C1021.08 100.292 1035.31 16.412 1056.65 -7.62939e-06H1010.91C1008.79 8.47199 1003.82 29.5067 1002.32 45.9387L999.965 -7.62939e-06H957.068H956.541C955.624 11.46 953.83 35.7053 953.83 50.1453C953.83 50.1453 951.582 15.3613 948.974 -7.62939e-06H908.53V41.472C908.53 41.472 904.956 13.9253 898.205 -7.62939e-06Z" fill="#039FF7"/>
<path d="M977.237 179.61L984.749 379.197H932.169L941.826 179.61H977.237Z" fill="#039FF7"/>
<path d="M507.974 672.403H335.358V667.08H507.974V672.403Z" fill="#039FF7"/>
<path d="M424.325 756.047H419.002V583.433H424.325V756.047Z" fill="#039FF7"/>
<path d="M980.755 672.403H808.139V667.08H980.755V672.403Z" fill="#039FF7"/>
<path d="M897.111 756.047H891.789V583.433H897.111V756.047Z" fill="#039FF7"/>
<path d="M941.077 1039.78H209.005C194.305 1039.78 182.39 1027.86 182.39 1013.16V555.391H48.553C25.4623 555.391 6.47432 540.27 1.30632 517.762C-3.83368 495.394 6.49431 473.634 27.0116 463.474L614.214 158.681C622.209 154.541 631.758 154.71 639.588 159.144L1204.31 478.827C1217.1 486.069 1221.6 502.307 1214.36 515.101C1207.12 527.89 1190.88 532.399 1178.09 525.149L625.926 212.575L68.0196 502.162H209.005C223.706 502.162 235.62 514.078 235.62 528.777V986.547H941.077C955.777 986.547 967.692 998.465 967.692 1013.16C967.692 1027.86 955.777 1039.78 941.077 1039.78Z" fill="#039FF7"/>
</svg>
